<svg width="1350mm" height="450mm" viewBox="0 0 1350 450" xmlns="http://www.w3.org/2000/svg"><path style="fill:#fcfcfc;fill-opacity:1;stroke-width:2.367" d="M152 52h46v46h-46zM202 52h46v46h-46zM252 52h46v46h-46zM302 52h46v46h-46zM352 52h46v46h-46zM152 102h46v46h-46zM152 202h46v46h-46zM152 152h46v46h-46zM152 252h46v46h-46zM252 202h46v46h-46zM302 202h46v46h-46zM202 202h46v46h-46zM152 302h46v46h-46zM152 352h46v46h-46zM202 352h46v46h-46zM252 352h46v46h-46zM302 352h46v46h-46zM352 352h46v46h-46z"/><path style="fill:#5efd00;fill-opacity:1;stroke-width:2.367" d="M452 102h46v46h-46zM452 52h46v46h-46zM552 202h46v46h-46zM502 152h46v46h-46zM502 252h46v46h-46zM452 302h46v46h-46zM452 352h46v46h-46zM602 252h46v46h-46zM652 302h46v46h-46zM652 352h46v46h-46zM652 52h46v46h-46zM652 102h46v46h-46zM602 152h46v46h-46z"/><path style="fill:#fcfcfc;fill-opacity:1;stroke-width:2.367" d="M802 52h46v46h-46zM852 52h46v46h-46zM902 52h46v46h-46zM752 102h46v46h-46zM752 202h46v46h-46zM752 152h46v46h-46zM752 252h46v46h-46zM752 302h46v46h-46zM802 352h46v46h-46zM852 352h46v46h-46zM902 352h46v46h-46zM1052 152h46v46h-46zM1052 102h46v46h-46zM1102 52h46v46h-46zM1152 52h46v46h-46zM1202 52h46v46h-46zM1252 102h46v46h-46zM1102 202h46v46h-46zM1152 202h46v46h-46zM1202 202h46v46h-46zM1252 252h46v46h-46zM1252 302h46v46h-46zM1202 352h46v46h-46zM1152 352h46v46h-46zM1102 352h46v46h-46zM1052 302h46v46h-46zM52 352h46v46H52zM952 102h46v46h-46zM952 302h46v46h-46z"/></svg>