<?xml version="1.0" encoding="UTF-8"?>
<svg id="Layer_2" data-name="Layer 2" xmlns="http://www.w3.org/2000/svg" viewBox="0 0 269.14 87.1">
  <defs>
    <style>
      .cls-1 {
        fill: #112033;
      }

      .cls-2 {
        fill: #b72039;
      }

      .cls-3 {
        fill: #e63946;
      }
    </style>
  </defs>
  <g id="Layer_1-2" data-name="Layer 1">
    <g>
      <path class="cls-1" d="m61.95,0c-9.27,0-16.77,5.42-18.44,13.61l-3.55,17.36-3.65-17.36C34.63,5.42,27.23,0,17.96,0,8.19,0,0,6.21,0,14.99v51.59h15.98V16.67c0-.99,1.09-1.58,2.17-1.58,1.19,0,2.27.59,2.47,1.58l11.94,49.91h14.79l11.84-49.91c.3-.99,1.28-1.58,2.47-1.58s2.27.59,2.27,1.58v49.91h15.98V14.99c0-8.78-8.29-14.99-17.96-14.99Z"/>
      <path class="cls-1" d="m113.84,29l-.19,1.28-3.06,20.22c-.3.99-.89,1.39-1.68,1.39h-.19c-.79,0-1.39-.4-1.58-1.39l-3.16-20.81-.2-1.38-1.67-11.05h-16.38l3.26,18.05.19,1.09,2.96,16.47c.3,2.07.99,3.95,1.78,5.63l.2.39c1.18,2.27,2.76,4.14,4.73,5.52l.2.2c2.27,1.58,5.03,2.57,8.09,2.86-1.48,4.34-6.91,7.3-15.98,7.3v12.33c16.47,0,29.29-5.62,32.35-22l.2-1.18,1.87-10.95v-.2l2.86-15.88.2-1.08,3.36-18.55h-16.38l-1.78,11.74Z"/>
      <path class="cls-3" d="m176.37,41.92c0,5.25,1.56,10.11,4.24,14.16-3.74,6.87-11.44,11.39-20.79,11.39-12.63,0-22.5-7.69-24.37-17.56l14.4-4.44c1.38,4.54,5.13,7.5,9.57,7.5s7.3-2.56,7.3-5.92c0-3.55-3.35-5.62-10.06-7.4-12.53-3.35-20.62-9.57-20.62-19.63C136.04,8.97,146.2.1,159.03.1c11.34,0,20.61,7,22.78,16.67l-14.3,4.44c-1.78-4.34-5.13-7.11-9.27-7.11-3.26,0-5.82,2.17-5.82,4.94,0,3.25,2.36,5.13,8.38,6.7,7.43,1.93,13.12,4.52,16.89,8.03-.86,2.56-1.32,5.3-1.32,8.15Z"/>
      <path class="cls-3" d="m221,41.92c0-4.64,1.2-8.95,3.34-12.65-4.38-7.77-12.72-13-22.32-13-11.35,0-20.94,7.31-24.33,17.5,3.56,3.28,5.41,7.38,5.41,12.49,0,3.58-.88,6.91-2.49,9.82,4.58,6.93,12.45,11.49,21.41,11.49,9.61,0,17.96-5.23,22.34-13.02-2.15-3.75-3.36-8.04-3.36-12.63Zm-18.98,10.46c-5.42,0-9.67-4.64-9.67-10.46s4.25-10.45,9.67-10.45,9.67,4.63,9.67,10.45-4.24,10.46-9.67,10.46Z"/>
      <path class="cls-2" d="m183.1,46.26c0,3.58-.88,6.91-2.49,9.82-2.68-4.05-4.24-8.91-4.24-14.16,0-2.85.46-5.59,1.32-8.15,3.56,3.28,5.41,7.38,5.41,12.49Z"/>
      <path class="cls-2" d="m227.67,41.92c0,4.6-1.2,8.91-3.31,12.63-2.15-3.75-3.36-8.04-3.36-12.63s1.2-8.95,3.34-12.65c2.13,3.73,3.33,8.04,3.33,12.65Z"/>
      <path class="cls-3" d="m266.28,52.77l2.77,1.68c-.79,1.48-1.78,2.86-2.77,4.14l-.19.2c-1.39,1.68-2.96,3.16-4.74,4.34l-.2.1c-1.48,1.09-3.06,1.87-4.73,2.57l-.2.09c-2.96,1.09-6.12,1.68-9.57,1.68s-6.9-.69-9.96-2.07h-.2c-1.68-.79-3.25-1.68-4.73-2.76l-.2-.1c-1.78-1.28-3.36-2.76-4.74-4.54l-.19-.2c-.84-1.06-1.61-2.18-2.27-3.35,2.11-3.72,3.31-8.03,3.31-12.63s-1.2-8.92-3.33-12.65c.67-1.17,1.44-2.29,2.29-3.33l.19-.29c1.38-1.68,2.96-3.16,4.74-4.44l.2-.2c1.48-.99,3.05-1.88,4.73-2.66l.2-.1c1.48-.6,3.06-1.09,4.73-1.48h.2c1.58-.3,3.16-.5,4.74-.5h.29c1.58,0,3.16.1,4.64.4h.2c1.67.29,3.25.69,4.73,1.28l.2.1c1.67.69,3.25,1.48,4.73,2.47l.2.19c1.78,1.19,3.35,2.67,4.74,4.34l.19.2c1.09,1.28,1.98,2.76,2.86,4.24l-2.86,1.68-.19.2-4.74,2.76-.2.2-4.73,2.76-.2-.1c-1.18-2.17-2.76-3.75-4.73-4.74l-.2-.09c-1.28-.5-2.66-.79-4.24-.79h-.69c-1.78.1-3.36.59-4.74,1.48l-.2.1c-2.76,1.77-4.44,5.03-4.44,8.97s1.68,7.2,4.44,8.98l.2.1c1.38.89,2.96,1.38,4.74,1.48h.69c1.58,0,2.96-.3,4.24-.79l.2-.1c2.07-.89,3.65-2.47,4.73-4.64l.2-.1,4.73,2.87.2.09,4.74,2.87.19.09Z"/>
    </g>
  </g>
</svg>